HIERARCHY
ROOT pelvis
{
  OFFSET 0 100 0
  CHANNELS 6 Xposition Yposition Zposition Zrotation Xrotation Yrotation
  JOINT pelvis_right_femur
  {
    OFFSET -10.78128 -3.44521 -0.5502486
    CHANNELS 3 Zrotation Xrotation Yrotation
    JOINT right_femur_tibia
    {
      OFFSET -0.8047443 -44.0398 -0.1307829
      CHANNELS 3 Zrotation Xrotation Yrotation
      JOINT right_tibia_foot
      {
        OFFSET 3.006224 -47.83518 -5
        CHANNELS 3 Zrotation Xrotation Yrotation
        End Site
        {
          OFFSET 0 -5 15
        }
      }
    }
  }
  JOINT pelvis_left_femur
  {
    OFFSET 10.78128 -3.44521 -0.5502486
    CHANNELS 3 Zrotation Xrotation Yrotation
    JOINT left_femur_tibia
    {
      OFFSET 0.8047443 -44.0398 -0.1307829
      CHANNELS 3 Zrotation Xrotation Yrotation
      JOINT left_tibia_foot
      {
        OFFSET -4.370144 -48.10324 -4.275266
        CHANNELS 3 Zrotation Xrotation Yrotation
        End Site
        {
          OFFSET 0 -5 15
        }
      }
    }
  }
  JOINT pelvis_spine1
  {
    OFFSET 0 6.468898 -3.129235
    CHANNELS 3 Zrotation Xrotation Yrotation
    JOINT spine1
    {
      OFFSET 0 23.15396 4.99043
      CHANNELS 3 Zrotation Xrotation Yrotation
      JOINT spine2
      {
        OFFSET 0 20.79997 -5.064912
        CHANNELS 3 Zrotation Xrotation Yrotation
        JOINT neck
        {
          OFFSET 0 14.38658 9.616178
          CHANNELS 3 Zrotation Xrotation Yrotation
          End Site
          {
            OFFSET 0 20 0
          }
        }
      }
      JOINT right_manubrium
      {
        OFFSET -5.722621 16.35077 3.967754
        CHANNELS 3 Zrotation Xrotation Yrotation
        JOINT right_clavicle
        {
          OFFSET -13.16364 1.694482 -4.693211
          CHANNELS 3 Zrotation Xrotation Yrotation
          JOINT right_humerus
          {
            OFFSET -28.5034 -0.3100689 -2.792744
            CHANNELS 3 Zrotation Xrotation Yrotation
            JOINT right_radius
            {
              OFFSET -25.15693 0.02248979 -1.271978
              CHANNELS 3 Zrotation Xrotation Yrotation
              End Site
              {
                OFFSET -15 0 0
              }
            }
          }
        }
      }
      JOINT left_manubrium
      {
        OFFSET 5.722621 16.35077 3.967754
        CHANNELS 3 Zrotation Xrotation Yrotation
        JOINT left_clavicle
        {
          OFFSET 13.16364 1.694482 -4.693211
          CHANNELS 3 Zrotation Xrotation Yrotation
          JOINT left_humerus
          {
            OFFSET 29.39168 -1.063119 -2.237045
            CHANNELS 3 Zrotation Xrotation Yrotation
            JOINT left_radius
            {
              OFFSET 24.59957 -0.9528479 0.9047498
              CHANNELS 3 Zrotation Xrotation Yrotation
              End Site
              {
                OFFSET 15 -0 -0
              }
            }
          }
        }
      }
    }
  }
}
MOTION
Frames: 23
Frame Time: 0.0416666666667
0 103.5113 0 -0.6501861 -0.9529537 0.02882536 3.685577 -8.575469 11.96247 -0 32.04681 -0 -5.35602 -17.01467 -1.61606 -5.659008 7.987058 -24.42545 -0 7.082737 -0 12.16737 -17.46664 28.95111 -0.3357586 -5.333779 4.885885 -0.01054917 11.18228 -3.765008 4.201716 20.87539 2.453419 1.10712 -27.5873 6.788818 7.569353 -18.88484 8.945387 82.38694 38.94384 -16.0633 -0 0 18.85829 -6.4706 8.341631 2.316625 4.565729 -14.03509 -6.342565 -92.57682 27.55632 16.5775 0 0 -11.42022 11.53015 29.67977 4.185506
0.4652014 103.4579 1.181226 -0.6530798 -0.9443674 0.09537344 4.497451 -12.29031 12.40536 -0 36.98606 -0 -5.684864 -16.45912 -3.018416 -5.8307 8.869797 -23.98403 -0 6.79702 -0 11.76921 -18.1006 28.42524 -0.4527813 -4.288717 4.202416 -0.1201541 11.39254 -4.365194 4.175774 20.44954 3.024174 1.159718 -28.51961 7.680491 7.441406 -19.02342 8.998777 82.47383 38.84517 -15.77072 -0 0 18.70395 -6.681703 8.43681 2.471613 4.635443 -14.65637 -5.854691 -92.68637 27.6624 17.14094 0 0 -11.49376 11.63695 28.90473 4.239678
0.9602303 103.549 2.638491 -0.6623706 -0.9418666 0.09373727 5.281293 -16.27858 12.37254 -0 39.87876 -0 -6.120947 -15.57027 -4.011594 -5.977298 10.00827 -23.41709 -0 6.310283 -0 11.1581 -18.66049 27.72771 -0.6641 -3.042867 3.538364 -0.04377725 11.60049 -5.009178 4.176232 19.90145 3.569989 1.266047 -29.424 8.523476 7.23163 -18.94015 9.085323 82.72237 38.77124 -15.85419 -0 0 18.18152 -6.78435 8.546706 2.526015 4.758074 -15.16746 -5.617542 -92.50066 27.67094 17.20037 0 0 -11.86005 11.89702 28.02816 4.145872
1.31518 103.5451 4.287646 -0.6572947 -0.9219108 0.2728927 5.778758 -20.22413 11.76839 -0 40.28352 -0 -6.528255 -13.90228 -4.632729 -6.013455 11.27932 -22.7452 -0 5.792072 -0 10.42164 -19.24534 26.85638 -0.7911358 -1.80034 3.240983 0.1172028 11.56475 -5.391049 4.133149 19.42296 4.067512 1.395363 -30.08574 9.183273 6.848659 -18.68814 9.068267 83.18327 38.69344 -16.23513 -0 0 17.49559 -6.79347 8.670038 2.544796 5.183113 -16.0224 -5.077303 -91.77547 27.64758 16.55432 0 0 -12.64175 12.36272 27.06447 3.865867
1.652587 103.5058 6.277456 -0.6491561 -0.8987205 0.4826767 6.072659 -23.83446 10.68148 -0 38.47769 -0 -6.943363 -11.8412 -4.714864 -6.061442 12.59743 -21.83243 -0 5.192427 -0 9.648319 -19.98708 25.88228 -1.092654 -0.5018012 2.954699 0.366345 11.32656 -5.883642 4.007934 18.77906 4.562901 1.537012 -30.58666 9.664964 6.629877 -18.29146 9.150006 83.86306 38.62075 -16.90287 -0 0 16.51282 -6.688857 8.820919 2.488329 5.544544 -16.96486 -4.83052 -90.8775 27.55606 15.36146 0 0 -13.863 13.00716 26.08975 3.457388
1.927045 103.1806 8.5822 -0.6265734 -0.8604001 0.8480661 6.3038 -26.81778 9.325148 -0 33.71082 -0 -7.05904 -9.901663 -4.207094 -6.047651 14.16614 -20.93439 -0 4.990135 -0 8.865804 -20.81392 24.60744 -1.251359 0.8225893 2.991246 0.8897299 11.21945 -6.094384 4.025512 18.67297 4.938312 1.741738 -30.75477 10.13262 6.159044 -17.78822 9.100004 84.60357 38.55011 -17.7511 -0 0 15.36817 -6.540129 8.998393 2.41989 6.241407 -18.12585 -4.404781 -89.66067 27.36037 13.6525 0 0 -15.90108 13.71192 25.05847 2.839274
2.204663 102.5838 11.36537 -0.5853579 -0.8020057 1.426576 6.361421 -28.98865 7.914687 -0 27.70194 -0 -7.110618 -8.131095 -3.472033 -5.934613 15.90748 -20.1055 -0 5.21637 -0 8.057863 -21.69818 23.00823 -1.533672 1.74722 2.991564 1.411811 10.95681 -6.349168 3.931794 18.50945 5.289909 1.973097 -30.48151 10.28631 5.846456 -17.12273 9.087264 85.52876 38.45957 -18.8268 -0 0 14.01672 -6.317209 9.204589 2.326053 6.975532 -19.2584 -4.033999 -88.31345 27.06777 11.74434 0 0 -18.22927 14.30544 23.98784 2.208315
2.462036 101.858 14.36242 -0.4990942 -0.6907312 2.560421 6.087343 -30.45438 6.353954 -0 21.87546 -0 -7.171456 -6.671491 -2.872031 -5.850874 17.51711 -18.92514 -0 5.516969 -0 7.10189 -22.53046 21.17662 -1.880831 2.505314 2.840322 1.810806 10.55465 -6.67453 3.708165 18.15099 5.688323 2.249888 -29.76616 10.18183 5.795962 -16.38743 9.160179 86.53646 38.35167 -19.98157 -0 0 12.57097 -6.072087 9.436636 2.242888 7.505031 -20.30358 -3.7914 -86.94755 26.70893 9.962765 0 0 -20.26597 14.64397 22.88517 1.760412
2.703242 101.0694 18.10719 -0.437364 -0.6094968 3.382637 5.931008 -31.48093 4.81259 -0 17.26251 -0 -7.39868 -5.597233 -2.574192 -5.669865 19.10462 -18.01835 -0 6.739147 -0 5.870044 -23.01264 19.01693 -2.01244 3.060754 2.662473 2.263945 10.27158 -6.953206 3.48828 18.06742 6.081522 2.508795 -29.01189 10.1264 5.776287 -15.686 9.176477 87.48659 38.23347 -21.06782 -0 0 11.1279 -5.883083 9.686703 2.216522 7.793305 -21.14483 -3.63359 -85.875 26.34699 8.532742 0 0 -21.97184 14.80699 21.83908 1.496436
2.919125 100.3734 22.30054 -0.3479754 -0.4922813 4.570107 5.790141 -31.46632 3.659465 -0 15.35129 -0 -7.871176 -4.946241 -2.451837 -5.188627 20.66876 -17.15651 -0 8.668727 -0 4.257318 -22.83325 16.52754 -2.143267 3.51183 2.277529 2.648709 10.00466 -7.4368 3.206301 18.04043 6.416523 2.701793 -28.34355 9.956556 5.861304 -15.08948 9.187824 88.34568 38.08128 -21.87439 -0 0 9.96682 -5.823678 9.939242 2.364213 7.85971 -21.76044 -3.674531 -85.16614 26.03223 7.548032 0 0 -23.14391 14.76035 20.86465 1.461964
3.133487 99.8825 27.22518 -0.2403781 -0.3473625 6.023064 5.452422 -30.0013 2.749687 -0 16.3175 -0 -8.578126 -4.502207 -2.598841 -4.961284 21.76729 -15.94147 -0 12.12593 -0 2.3152 -21.47933 14.12794 -2.136127 3.602241 1.79916 2.915388 9.771431 -8.019418 2.935349 18.02845 6.681576 2.874908 -27.73558 9.717975 5.913116 -14.42544 9.164745 89.13213 37.89241 -22.5096 -0 0 9.054715 -5.921393 10.1921 2.693119 7.633499 -22.08155 -3.812302 -84.89587 25.80023 7.19431 0 0 -23.53546 14.4298 19.95556 1.752628
3.315417 99.82533 32.67631 -0.1704636 -0.2498154 6.989141 5.476841 -28.60689 2.186266 -0 18.38984 -0 -9.42199 -4.345847 -2.915918 -4.672265 21.90478 -14.88727 -0 17.43753 -0 0.1857403 -18.57139 11.69417 -1.945216 3.360644 1.504683 3.000261 9.693074 -8.443327 2.621036 17.92523 6.938831 3.008994 -27.18606 9.439352 5.922565 -13.87915 9.236278 89.79955 37.70073 -22.83944 -0 0 8.462215 -6.201125 10.44369 3.204742 7.12739 -21.83344 -3.924597 -85.13855 25.64869 7.836569 0 0 -22.86087 13.77352 19.03473 2.386
3.625919 100.3038 38.46871 -0.1735708 -0.2536332 6.952926 5.648206 -26.14494 1.970872 -0 20.10212 -0 -10.12614 -5.128166 -2.965062 -4.912514 20.55963 -13.82415 -0 25.19612 -0 -1.815857 -14.00363 9.451982 -1.583865 2.816434 1.628423 2.892552 9.766325 -8.504972 2.252947 18.10167 7.13853 3.100935 -26.47955 9.048805 5.802864 -13.6357 9.50435 90.01126 37.62707 -22.54001 -0 0 8.200304 -6.625168 10.70801 3.851946 6.521389 -21.30917 -3.938244 -85.85984 25.58761 9.097868 0 0 -21.64605 12.89437 18.16048 3.220317
3.984761 101.0435 44.47052 -0.2524432 -0.3617106 5.886036 6.128134 -22.58529 1.81756 -0 20.49649 -0 -10.63432 -6.692699 -2.688592 -5.355154 17.08305 -12.81832 -0 34.92196 -0 -3.062018 -8.966001 7.694684 -1.279407 1.940501 2.277499 2.701321 9.935895 -8.299041 1.865691 18.57748 7.251503 3.178812 -25.62583 8.528295 5.64794 -13.77017 9.913334 89.61214 37.66537 -21.57507 -0 0 8.253708 -7.246231 10.96818 4.631434 5.923138 -20.71717 -3.839505 -86.81093 25.58302 10.75457 0 0 -20.0184 11.82203 17.32121 4.229037
4.246571 102.1627 50.12716 -0.3139488 -0.4445223 5.063764 6.374233 -18.18482 1.429828 -0 19.2743 -0 -10.76992 -8.409607 -2.21077 -5.200188 11.37698 -11.62485 -0 44.08437 -0 -3.218916 -5.483775 7.252967 -1.069704 1.36804 3.361835 2.457804 9.979929 -7.813646 1.642215 18.99357 7.215227 3.316383 -24.92641 7.967655 5.609048 -14.32441 10.57208 88.44749 37.78447 -19.74917 -0 0 8.703331 -8.178414 11.17222 5.577627 5.199697 -20.3904 -3.716342 -87.87613 25.56511 12.42308 0 0 -18.3905 10.61378 16.51445 5.311364
4.442115 103.1482 55.21244 -0.3148239 -0.4481006 5.036644 6.285486 -13.59796 0.9305116 -0 16.90235 -0 -10.48712 -9.903035 -1.585984 -4.544844 4.778732 -10.23712 -0 51.13441 -0 -3.158185 -3.546751 7.539188 -0.9990758 0.9424134 4.435441 2.23311 10.02758 -7.298096 1.636167 19.38145 6.955621 3.528021 -24.21954 7.306168 5.506974 -14.9341 11.25779 86.95856 37.88784 -17.47699 -0 0 9.276942 -9.329727 11.31504 6.584091 4.690996 -20.16389 -3.582757 -88.89961 25.50238 14.1018 0 0 -16.90562 9.427705 15.75567 6.238895
4.698206 104.382 60.88867 -0.4083402 -0.573273 3.785562 6.355533 -8.333445 0.5693755 -0 13.99802 -0 -9.822233 -11.08031 -0.7496812 -3.421234 -3.661474 -10.23757 -0 55.95903 -0 -2.190859 -4.31142 7.719448 -0.9134688 -0.04771469 5.943496 1.848313 10.20976 -6.32949 1.641952 19.86305 6.721115 3.741783 -23.55048 6.719669 5.328715 -15.77952 11.72219 84.81647 37.79434 -14.69487 -0 0 10.3142 -10.88489 11.30162 7.757031 4.285272 -19.59423 -3.0495 -89.99155 25.33885 16.25529 0 0 -15.30431 8.233883 15.0261 7.084867
4.916221 105.2668 65.95056 -0.4631296 -0.6474001 3.042553 6.285487 -3.414567 0.2119369 -0 10.96943 -0 -8.944806 -12.11801 0.0315602 -1.790438 -12.14624 -9.637121 -0 56.02097 -0 -1.364815 -5.432436 9.099009 -0.8862081 -0.6137068 6.898224 1.422943 10.29777 -5.672725 1.553965 20.26892 6.560136 3.86234 -22.78379 6.187609 4.881988 -16.90676 11.95732 82.3894 37.506 -11.49758 -0 0 11.78823 -12.63611 11.16333 9.025883 4.195057 -19.09029 -2.646771 -90.88753 25.13234 18.1425 0 0 -13.86562 7.064336 14.3101 7.805792
5.338067 105.5117 71.02681 -0.467477 -0.6572923 2.950717 6.098993 1.116871 -0.07068507 -0 8.483091 -0 -8.03079 -13.27421 0.6006906 0.2316056 -19.5673 -8.086518 -0 51.07609 -0 -1.223834 -5.891333 11.47479 -0.7011645 -1.000528 7.411801 0.8988923 10.30866 -5.201756 1.460701 20.31685 6.43232 3.920215 -22.07016 5.736208 4.117846 -17.82181 12.02636 80.12596 37.00907 -8.398784 -0 0 13.55153 -14.41582 10.94621 10.31464 4.256646 -18.60458 -2.351153 -91.6777 24.88819 19.76114 0 0 -12.54821 5.92649 13.62077 8.441894
5.707115 105.301 75.89743 -0.4707359 -0.6634755 2.886557 5.98734 5.131891 -0.3848107 -0 6.728817 -0 -7.127838 -14.56554 0.9581905 1.750501 -24.49021 -5.89662 -0 43.42523 -0 -1.281532 -5.441338 14.13321 -0.6526653 -0.8700679 7.762523 0.4115176 10.14992 -4.785816 1.379952 20.15617 6.358784 3.948825 -21.45894 5.407259 3.489286 -19.08707 12.16468 77.60656 36.31342 -4.994825 -0 0 15.58201 -16.25066 10.67965 11.55654 4.261984 -18.26166 -2.250147 -92.20073 24.65071 21.05041 0 0 -11.24948 4.827307 12.96063 9.038462
6.218615 104.4631 80.98528 -0.4741229 -0.6684383 2.831492 5.930496 8.600193 -0.5384384 -0 6.17307 -0 -6.249258 -15.92459 1.107096 3.050882 -27.81605 -3.789295 -0 33.68533 -0 -1.455668 -4.532421 16.18849 -0.5195745 -0.862765 7.857664 0.01079157 10.04933 -4.551826 1.235769 19.88423 6.37058 3.914674 -20.92153 5.178363 2.935811 -20.22066 12.20669 75.40289 35.48359 -1.968919 -0 0 17.48544 -18.06977 10.39296 12.70486 4.202849 -17.80636 -2.161435 -92.57672 24.37522 22.14536 0 0 -9.926698 3.817164 12.31024 9.596036
6.925679 103.2709 86.26918 -0.4431573 -0.6297745 3.223811 5.844671 11.46529 -0.5130116 -0 6.920631 -0 -5.347142 -17.0741 1.103363 3.498413 -30.0005 -2.001836 -0 23.68582 -0 -1.320586 -4.484914 17.28257 -0.4330377 -0.7813947 7.736329 -0.3148185 9.97936 -4.575896 1.176946 19.4932 6.414255 3.920271 -20.56249 5.089572 2.494055 -21.16388 12.1183 73.63021 34.58919 0.453758 -0 0 19.071 -19.81545 10.10295 13.7188 3.955012 -17.39272 -2.188557 -92.85718 24.07278 22.99887 0 0 -8.651042 2.884904 11.676 10.08724
7.710715 102.0261 91.84729 -0.4279919 -0.6114515 3.407567 5.539216 13.95076 -0.256263 -0 9.022914 -0 -4.322391 -17.42154 1.177593 2.957707 -31.17946 -1.846955 -0 16.54917 -0 -0.8976822 -5.206817 17.0299 -0.4146174 -0.8944517 7.797246 -0.5271668 10.05403 -4.590738 1.180452 19.22931 6.466047 3.976666 -20.26104 5.071177 2.291825 -21.82426 11.98039 72.4635 33.74269 2.030256 -0 0 20.1359 -21.3605 9.868729 14.53074 3.574189 -16.93718 -2.162704 -93.04872 23.73889 23.72717 0 0 -7.463267 2.030625 11.05336 10.51393
